<?xml version="1.0" encoding="UTF-8" standalone="no"?>
<svg
   xmlns:dc="http://purl.org/dc/elements/1.1/"
   xmlns:cc="http://creativecommons.org/ns#"
   xmlns:rdf="http://www.w3.org/1999/02/22-rdf-syntax-ns#"
   xmlns:svg="http://www.w3.org/2000/svg"
   xmlns="http://www.w3.org/2000/svg"
   xmlns:sodipodi="http://sodipodi.sourceforge.net/DTD/sodipodi-0.dtd"
   xmlns:inkscape="http://www.inkscape.org/namespaces/inkscape"
   version="1.1"
   id="Layer_1"
   x="20px"
   y="10px"
 
   style="enable-background:new 0 0 122.88 108.8"
   xml:space="preserve"
   sodipodi:docname="negative-thoughts.svg"
   inkscape:version="0.92.2 (5c3e80d, 2017-08-06)"><metadata
     id="metadata11"><rdf:RDF><cc:Work
         rdf:about=""><dc:format>image/svg+xml</dc:format><dc:type
           rdf:resource="http://purl.org/dc/dcmitype/StillImage" /></cc:Work></rdf:RDF></metadata><defs
     id="defs9" /><sodipodi:namedview
     pagecolor="#ffffff"
     bordercolor="#666666"
     borderopacity="1"
     objecttolerance="10"
     gridtolerance="10"
     guidetolerance="10"
     inkscape:pageopacity="0"
     inkscape:pageshadow="2"
     inkscape:window-width="1299"
     inkscape:window-height="745"
     id="namedview7"
     showgrid="false"
     inkscape:zoom="5.4424404"
     inkscape:cx="30"
     inkscape:cy="35"
     inkscape:window-x="-8"
     inkscape:window-y="-8"
     inkscape:window-maximized="1"
     inkscape:current-layer="g4" /><g
     id="g4"
     transform="matrix(-1,0,0,1,122.8591,0)"><path
       d="m 15.36039,87.944003 c 0.09,0.54 0.21,1.08 0.32,1.63 v 0.02 c 0.04,0.21 0.04,0.42 0.01,0.61 -0.03,0.21 -0.11,0.41 -0.22,0.58 -0.4,0.8 -0.7,1.55 -0.92,2.23 -0.22,0.7 -0.34,1.32 -0.38,1.88 -0.03,0.56 0.02,1.05 0.16,1.48 0.13,0.43 0.36,0.79 0.66,1.09 0.32,0.32 0.74,0.6 1.24,0.83 0.53,0.24 1.15,0.43 1.84,0.55 1.07,0.2 2.3,0.27 3.62,0.23 1.4,-0.04 2.9,-0.22 4.47,-0.5 1.54,-0.28 3.19,-0.65 4.84,-1.09 1.5,-0.42 3,-0.9 4.45,-1.46 1.28,-0.5 2.51,-1.05 3.64,-1.67 1.05,-0.57 2.01,-1.19 2.83,-1.84 0.82,-0.66 1.44,-1.54 1.92,-2.48 l 0.01,-0.02 c 0.49,-0.96 0.84,-1.98 1.18,-2.93 l 0.33,-0.95 0.2,-0.54 c 0.42,-1.16 1,-2.74 1.71,-4.22 0.72,-1.51 1.58,-2.92 2.57,-3.68 0.36,-0.28 0.82,-0.4 1.25,-0.33 0.43,0.05 0.83,0.27 1.13,0.65 0.28,0.36 0.4,0.82 0.33,1.25 -0.05,0.43 -0.27,0.84 -0.65,1.12 -0.58,0.45 -1.19,1.53 -1.74,2.74 -0.56,1.25 -1.07,2.63 -1.44,3.65 -0.19,0.47 -0.35,0.97 -0.52,1.44 -0.41,1.16 -0.84,2.41 -1.48,3.6 -0.65,1.22 -1.5,2.39 -2.71,3.36 -0.97,0.77 -2.07,1.49 -3.26,2.13 -1.28,0.7 -2.67,1.32 -4.1,1.88 -0.31,0.13 -0.65,0.24 -0.98,0.37 l -0.73,0.24 v 0 c 0.01,0.419997 0.01,0.829997 -0.01,1.249997 -0.02,0.5 -0.05,0.99 -0.09,1.49 -0.06,0.68 -0.16,1.34 -0.28,2.01 -0.13,0.67 -0.27,1.32 -0.44,1.97 -0.13,0.45 -0.42,0.81 -0.79,1.03 -0.38,0.22 -0.83,0.29 -1.28,0.17 -0.45,-0.13 -0.81,-0.42 -1.03,-0.79 -0.22,-0.37 -0.29,-0.83 -0.17,-1.28 v -0.01 c 0.16,-0.57 0.28,-1.14 0.39,-1.71 0.1,-0.57 0.19,-1.14 0.24,-1.71 0.03,-0.3 0.05,-0.6 0.06,-0.91 l 0.02,-0.49 c -0.73,0.2 -1.46,0.38 -2.17,0.53 -0.88,0.2 -1.76,0.38 -2.61,0.53 -1.76,0.31 -3.47,0.51 -5.06,0.55 -1.54,0.04 -2.97,-0.04 -4.25,-0.28 -1.02,-0.19 -1.96,-0.48 -2.78,-0.87 -0.8,-0.39 -1.51,-0.87 -2.09,-1.459997 -0.65,-0.66 -1.13,-1.42 -1.44,-2.3 -0.29,-0.84 -0.41,-1.79 -0.34,-2.84 0.05,-0.75 0.2,-1.55 0.45,-2.42 0.24,-0.8 0.56,-1.67 0.99,-2.56 -0.09,-0.46 -0.18,-0.93 -0.26,-1.4 -0.08,-0.5 -0.17,-1.02 -0.23,-1.56 -0.08,-0.6 -0.15,-1.21 -0.2,-1.8 -0.05,-0.59 -0.08,-1.2 -0.11,-1.82 0,-0.06 -0.02,-0.14 -0.03,-0.21 -0.1,-1.1 -0.17,-2.2 -0.2,-3.28 -0.04,-1.08 -0.05,-2.18 -0.06,-3.27 v -0.3 c -1.06,-0.06 -2.1899998,-0.09 -3.2299998,-0.19 -0.45,-0.02 -0.89,-0.09 -1.28,-0.22 -0.42,-0.12 -0.81,-0.31 -1.16,-0.54 -0.33,-0.22 -0.63,-0.48 -0.91,-0.78 -0.26,-0.3 -0.49,-0.63 -0.67,-1 -0.18,-0.35 -0.31,-0.74 -0.4,-1.14 -0.07,-0.36 -0.11,-0.79 -0.1,-1.22 0.01,-0.62 0.13,-1.29 0.35,-1.98 0.22,-0.64 0.53,-1.29 0.95,-1.96 l 3.62,-7.4 c 0.89,-1.8 1.32,-2.82 1.53,-3.62 0.1999998,-0.78 0.1799998,-1.36 0.1399998,-2.29 v -0.01 c -0.03,-0.85 -0.08,-1.96 -0.02,-3.61 0.03,-0.99 0.1,-1.96 0.22,-2.89 0.11,-0.94 0.28,-1.85 0.5,-2.75 0.16,-0.65 0.34,-1.27 0.55,-1.9 0.18,-0.51 0.38,-1.01 0.59,-1.49 l -6.39,-2.77 c -0.43,-0.19 -0.74,-0.53 -0.9,-0.93 -0.16,-0.41 -0.17,-0.86 0.02,-1.29 l 0.08,-0.18 c 0.03,-0.05 0.06,-0.1 0.09,-0.16 v -0.01 c 7.4,-10.1 15.28,-16.78 23.1,-20.7 8.88,-4.47 17.71,-5.4000001 25.75,-3.81 0.34,0.07 0.71,0.15 1.07,0.23 0.34,0.07 0.7,0.17 1.06,0.26 0.15,0.04 0.24,0.17 0.25,0.31 v 2.83 c 0,0.18 -0.15,0.32 -0.32,0.32 -0.04,0 -0.08,-0.01 -0.11,-0.02 -0.41,-0.11 -0.83,-0.22 -1.28,-0.33 -0.44,-0.1 -0.88,-0.2 -1.31,-0.28 -7.23,-1.43 -15.17,-0.6 -23.21,3.34 -7.05,3.46 -14.19,9.32 -20.99,18.16 2,0.88 4.39,1.77 6.3,2.76 1.94,0.7 4.24,0.63 6.7,0.22 2.51,-0.43 5.18,-1.24 7.78,-2.03 1.92,-0.58 3.79,-1.16 5.58,-1.58 1.8,-0.43 3.54,-0.71 5.16,-0.7 0.1,-0.01 0.22,-0.01 0.33,0.01 0.1,0.01 0.22,0.04 0.32,0.07 0.45,0.14 0.79,0.46 0.98,0.84 0.2,0.39 0.24,0.84 0.09,1.29 -0.85,2.59 -1.24,4.83 -1.22,6.8 0.01,1.95 0.42,3.61 1.14,5.07 0.73,1.47 1.78,2.76 3.08,3.92 1.31,1.17 2.88,2.2 4.63,3.14 0.41,0.22 0.69,0.59 0.81,1.01 0.13,0.42 0.08,0.87 -0.14,1.28 -0.22,0.41 -0.59,0.69 -1.01,0.81 -0.42,0.13 -0.88,0.08 -1.28,-0.14 -2.02,-1.1 -3.84,-2.31 -5.39,-3.71 -1.56,-1.4 -2.83,-2.99 -3.74,-4.83 -0.81,-1.66 -1.32,-3.5 -1.46,-5.57 -0.13,-1.94 0.08,-4.07 0.67,-6.46 -1.07,0.16 -2.21,0.42 -3.38,0.73 -1.37,0.37 -2.79,0.79 -4.22,1.23 -2.69,0.81 -5.43,1.66 -8.09,2.12 -2.59,0.46 -5.11,0.56 -7.44,-0.02 -0.2,0.42 -0.38,0.84 -0.53,1.29 -0.19,0.53 -0.34,1.08 -0.48,1.63 -0.19,0.76 -0.32,1.56 -0.43,2.4 -0.1,0.83 -0.17,1.69 -0.2,2.56 -0.05,1.52 -0.01,2.56 0.02,3.36 v 0.03 c 0.05,1.25 0.08,2.04 -0.18,3.08 -0.22,1.06 -0.74,2.31 -1.8,4.47 l -3.67,7.56 -0.08,0.13 c -0.27,0.42 -0.47,0.81 -0.6,1.18 -0.14,0.39 -0.21,0.74 -0.21,1.05 0,0.16 0.01,0.31 0.04,0.46 0.03,0.14 0.07,0.27 0.13,0.38 0.04,0.09 0.1,0.18 0.17,0.25 l 0.01,0.02 c 0.06,0.06 0.13,0.13 0.21,0.18 0.09,0.06 0.21,0.12 0.32,0.16 0.13,0.03 0.26,0.06 0.4,0.06 1.33,-0.01 2.92,0.17 4.28,0.25 0.06,-0.02 0.12,-0.03 0.19,-0.04 0.08,-0.01 0.17,-0.02 0.26,-0.02 1.25,0 2.78,0.21 4.05,0.33 0.46,0.04 0.86,0.26 1.15,0.59 0.28,0.33 0.44,0.77 0.4,1.23 -0.04,0.47 -0.26,0.88 -0.59,1.16 -0.33,0.28 -0.77,0.44 -1.23,0.4 -0.67,-0.05 -1.34,-0.08 -2.01,-0.13 v 0.06 c 0.01,0.98 0.02,1.95 0.05,2.93 l 0.15,2.73 z m 68.02,-59.27 c 6.6848,8.543555 17.3864,9.105954 23.2,0.01 l 0.84,-0.79 c -7.4396,6.222356 -15.96681,5.882356 -24.93,-0.05 z m 5.05,-17.47 c 1.77,0 3.2,1.87 3.2,4.18 0,2.31 -1.43,4.18 -3.2,4.18 -1.77,0 -3.2,-1.87 -3.2,-4.18 0,-2.31 1.43,-4.18 3.2,-4.18 z m 13.8,0 c 1.77,0 3.2,1.87 3.2,4.18 0,2.31 -1.44,4.18 -3.2,4.18 -1.77,0 -3.2,-1.87 -3.2,-4.18 0,-2.31 1.43,-4.18 3.2,-4.18 z m -12.99,26.89 c 0.59,1.32 1.41,2.38 2.38,3.2 1.44,1.21 3.23,1.88 5.12,2.05 1.94,0.18 3.99,-0.18 5.9,-1.02 1.72,-0.76 3.32,-1.93 4.61,-3.48 0.34,-0.41 0.85,-0.6 1.34,-0.56 2.62,0.17 2.43,-0.04 4.51,-0.57 5.58,-1.4 9.65,-10.44 10,-15.77 0.14,-2.12 -0.05,-4.27 -0.56,-6.29 -0.69,-2.72 -1.93,-5.27 -3.59,-7.4600001 -7.55,-8.00000003 -13.55,-7.68000003 -21.5,-2.37 -0.49,0.37 -1.11,0.42 -1.63,0.17 -5.52,-2.4 -10.33,-2.97 -14.36,-1.58 -4.02,1.37 -7.38,4.73 -10.04,10.1900001 -0.16,0.32 -0.41,0.56 -0.7,0.72 -3.17,1.78 -4.77,5.03 -4.92,8.51 -0.08,2 0.31,4.07 1.16,6.01 0.84,1.93 2.16,3.72 3.89,5.13 3.6,2.93 9.13,4.3 16.46,2.2 0.81,-0.22 1.62,0.19 1.93,0.92 z m 7.4,30.38 c 0.66,-1.09 1.7,-1.83 2.84,-2.14 1.19,-0.32 2.49,-0.2 3.63,0.46 1.15,0.66 1.93,1.72 2.25,2.91 0.32,1.19 0.2,2.49 -0.46,3.63 -0.66,1.14 -1.72,1.93 -2.91,2.25 -1.15,0.31 -2.41,0.21 -3.53,-0.39 -0.07,-0.03 -0.15,-0.07 -0.22,-0.13 -1.09,-0.66 -1.83,-1.7 -2.14,-2.84 -0.31,-1.14 -0.21,-2.41 0.4,-3.53 0.05,-0.07 0.09,-0.14 0.14,-0.22 z m 3.54,0.42 c -0.52,0.15 -0.99,0.49 -1.28,1 v 0.01 c -0.29,0.51 -0.35,1.1 -0.21,1.63 0.15,0.52 0.49,0.99 0.99,1.28 h 0.01 c 0.51,0.29 1.1,0.35 1.62,0.21 0.52,-0.15 1,-0.49 1.29,-1 0.29,-0.51 0.35,-1.1 0.21,-1.63 -0.15,-0.52 -0.49,-1 -1,-1.29 -0.52,-0.29 -1.11,-0.35 -1.63,-0.21 z m -0.29,-17.7 c 0.04,-0.08 0.08,-0.17 0.13,-0.24 1.05,-1.77 2.72,-2.98 4.57,-3.48 1.85,-0.51 3.89,-0.32 5.71,0.67 0.08,0.04 0.17,0.08 0.24,0.13 1.78,1.05 2.98,2.72 3.48,4.57 0.52,1.9 0.31,3.99 -0.73,5.82 -1.05,1.84 -2.75,3.08 -4.64,3.6 -1.89,0.52 -3.99,0.31 -5.82,-0.73 -1.84,-1.05 -3.08,-2.75 -3.6,-4.64 -0.52,-1.85 -0.33,-3.89 0.66,-5.7 z m 5.52,-0.73 c -1.13,0.31 -2.13,1.04 -2.76,2.13 v 0.01 c -0.63,1.1 -0.75,2.35 -0.44,3.48 0.31,1.13 1.05,2.13 2.15,2.76 1.1,0.63 2.35,0.75 3.48,0.44 1.13,-0.31 2.13,-1.05 2.76,-2.14 0.63,-1.1 0.75,-2.35 0.44,-3.48 -0.31,-1.13 -1.04,-2.13 -2.13,-2.76 h -0.01 c -1.11,-0.63 -2.36,-0.75 -3.49,-0.44 z m -15.81,-6.76 c -1.03,-0.85 -1.93,-1.92 -2.65,-3.17 -7.85,1.92 -13.93,0.23 -18.06,-3.12 -2.14,-1.74 -3.75,-3.94 -4.8,-6.31 -1.04,-2.37 -1.52,-4.93 -1.42,-7.39 0.19,-4.38 2.19,-8.5 6.13,-10.9 3.02,-6.0100001 6.91,-9.7600001 11.64,-11.3800001 4.6,-1.57000003 9.89,-1.08000003 15.83,1.35 9.48,-5.77 17.13,-5.21 25.17,3.51 1.93,2.52 3.35,5.4700001 4.14,8.6000001 0.59,2.33 0.81,4.8 0.65,7.26 -0.45,6.73 -5.38,16.85 -12.38,18.62 -2.18,0.55 -2.07,0.8 -4.73,0.7 -1.52,1.63 -3.31,2.88 -5.23,3.74 -2.4,1.06 -4.99,1.49 -7.46,1.27 -2.5,-0.24 -4.89,-1.16 -6.83,-2.78 z m -1.72,9.59 c 0.18,6.77 -1.45,12.36 -5.32,18.69 -3.5,5.72 -8.82,11 -16.3,15.38 -0.1,0.06 -0.21,0.1 -0.31,0.15 l -0.05,0.01 c 0.01,0.99 0.04,1.97 0.1,2.94 0.06,1.04 0.16,2.07 0.28,3.09 0.24,1.99 0.59,3.92 1.05,5.78 0.46,1.859997 1.02,3.669997 1.68,5.419997 0.17,0.44 0.13,0.9 -0.04,1.29 -0.17,0.39 -0.51,0.72 -0.95,0.88 -0.44,0.17 -0.89,0.14 -1.29,-0.04 -0.4,-0.18 -0.72,-0.51 -0.88,-0.95 -0.71,-1.88 -1.31,-3.81 -1.8,-5.81 -0.49,-1.999997 -0.88,-4.049997 -1.13,-6.169997 -0.26,-2.1 -0.4,-4.28 -0.41,-6.53 -0.01,-2.25 0.1,-4.56 0.34,-6.95 0.05,-0.47 0.28,-0.86 0.61,-1.13 0.33,-0.27 0.77,-0.42 1.24,-0.38 h 0.01 c 0.46,0.05 0.85,0.28 1.13,0.61 0.27,0.33 0.42,0.77 0.38,1.24 -0.05,0.55 -0.1,1.11 -0.15,1.69 l -0.07,1.05 c 6.32,-3.97 10.85,-8.65 13.84,-13.67 3.39,-5.7 4.82,-10.57 4.65,-16.62 0,-0.18 0.14,-0.33 0.31,-0.33 h 2.74 c 0.18,0 0.32,0.15 0.32,0.32 z m -29.89,9.59 c 0.08,0.46 -0.03,0.91 -0.27,1.26 -0.25,0.35 -0.63,0.62 -1.08,0.7 -0.46,0.08 -0.91,-0.03 -1.26,-0.27 -0.35,-0.25 -0.61,-0.63 -0.7,-1.08 -0.08,-0.48 -0.11,-0.94 -0.1,-1.39 0.02,-0.47 0.09,-0.92 0.22,-1.34 0.17,-0.58 0.42,-1.13 0.74,-1.62 0.33,-0.51 0.74,-0.97 1.21,-1.37 0.44,-0.38 0.94,-0.7 1.47,-0.95 0.53,-0.25 1.09,-0.43 1.68,-0.54 0.5,-0.09 1.01,-0.13 1.52,-0.1 0.5,0.02 1,0.1 1.5,0.24 1.35,0.38 2.33,0.93 3,1.59 0.69,0.69 1.05,1.5 1.18,2.42 0.11,0.78 0.01,1.59 -0.22,2.43 -0.22,0.81 -0.57,1.65 -0.98,2.5 -0.35,0.74 -1.2,2.51 -2.3,4.54 -1.09,2.03 -2.45,4.3 -3.79,6.03 -1.94,2.5 -3.87,4.19 -5.45,3.92 -1.59,-0.26 -2.75,-2.47 -3.04,-7.76 v -0.01 c -0.02,-0.46 0.15,-0.9 0.44,-1.21 l 0.02,-0.02 c 0.29,-0.31 0.7,-0.51 1.15,-0.53 h 0.03 c 0.45,-0.01 0.87,0.16 1.19,0.44 0.32,0.29 0.53,0.7 0.55,1.17 v 0.02 c 0.11,2.04 0.44,2.93 0.86,3.08 0.39,0.15 0.96,-0.38 1.57,-1.18 1.23,-1.58 2.48,-3.72 3.52,-5.62 1.03,-1.92 1.85,-3.61 2.19,-4.32 0.29,-0.61 0.55,-1.21 0.71,-1.73 0.16,-0.5 0.23,-0.94 0.19,-1.29 -0.03,-0.21 -0.16,-0.42 -0.4,-0.6 -0.28,-0.22 -0.72,-0.43 -1.35,-0.6 -0.25,-0.07 -0.5,-0.11 -0.74,-0.13 -0.26,-0.01 -0.51,0.01 -0.76,0.05 -0.29,0.05 -0.58,0.15 -0.84,0.27 -0.26,0.13 -0.51,0.28 -0.74,0.47 -0.21,0.18 -0.4,0.39 -0.54,0.61 -0.15,0.22 -0.25,0.45 -0.32,0.71 -0.05,0.19 -0.08,0.39 -0.09,0.59 -0.03,0.2 -0.01,0.41 0.03,0.62 z"
       id="path2"
       inkscape:connector-curvature="0"
       sodipodi:nodetypes="ccccccccscccccccccccccccccccccccccccccccccccscccccccccccccsccccsccccccccccccccccccccccccccccccccccsscccccccccccccccccccscccccccccccccccccccccscccccccccscccscccccccccccsssssssssscccccccccccccccccccccccsscccsccccccccccscccccccccccscscccccssscscccccccccccccccccccccccccccscscscscscscccccccccsccccccccccccscccccccccccccccccccccccccccccc" /></g></svg>